<?xml version="1.0" standalone="no"?><!DOCTYPE svg PUBLIC "-//W3C//DTD SVG 1.1//EN" "http://www.w3.org/Graphics/SVG/1.1/DTD/svg11.dtd"><svg t="1770283379568" class="icon" viewBox="0 0 1024 1024" version="1.1" xmlns="http://www.w3.org/2000/svg" p-id="5665" xmlns:xlink="http://www.w3.org/1999/xlink" width="200" height="200"><path d="M520.959007 314.396105h463.411839c-11.162633-26.588019-24.384393-52.020038-39.701404-76.04318h-423.74656v76.04318h0.036125z m360.130388 552.46003H142.910605c27.74402 28.755521 58.667043 54.295915 92.371692 76.043181h553.290906c33.84915-21.747266 64.772172-47.28766 92.516192-76.043181zM520.959007 157.216115h360.094263c-27.74402-28.755521-58.667043-54.295915-92.371692-76.043181h-267.722571v76.043181z m0 314.21548h501.487617c-2.059127-25.901644-5.996754-51.297538-11.740634-76.04318H520.959007V471.431595z m501.415367 81.20906H1.625626c2.059127 25.901644 5.996754 51.297538 11.740634 76.04318h997.26748c5.743879-24.709518 9.789882-50.141537 11.740634-76.04318z m-37.967403 157.071615H39.593029c11.162633 26.588019 24.384393 52.020038 39.701404 76.043181h865.411134c15.317011-24.059268 28.538771-49.491286 39.701404-76.043181z" fill="#FFFFFF" p-id="5666"></path><path d="M788.681578 81.172934C711.157271 31.356523 619.471954 1.806251 520.959007 0.180625v80.992309H788.681578z m-267.722571 157.179991h423.854935c-18.532139-29.116771-39.809779-56.391166-63.616172-81.100685h-360.094263v81.100685h-0.1445z m0 157.143865h489.783108c-6.574755-27.96077-15.317011-55.12679-26.226769-81.100685H520.959007v81.100685z m0 157.143865h501.487617c1.047626-13.330135 1.625626-26.913145 1.625626-40.60453 0-13.691385-0.578-27.16602-1.625626-40.60453H520.959007v81.20906zM1010.63374 628.57546H13.36626c6.574755 27.96077 15.317011 55.12679 26.226769 81.100685h944.777817c10.945883-25.973894 19.688139-52.995414 26.262894-81.100685z m-65.928173 157.179991H79.294433c18.532139 29.116771 39.809779 56.391166 63.616172 81.100684h738.17879c23.806392-24.745643 45.084033-51.875538 63.616172-81.100684z m-156.023989 157.143865H235.318422c79.511183 51.080787 173.942002 80.883934 275.308827 81.100684h2.528752c101.583574-0.21675 196.050519-30.019897 275.525577-81.100684z" fill="#EB0000" p-id="5667"></path><path d="M520.959007 471.431595V0.180625c-2.528752 0-5.057504-0.108375-7.586256-0.108375h-2.528752c-64.772172 0.108375-126.798843 12.318634-183.731884 34.4994l4.479503 13.908136h22.794892l-18.532139 13.474634 7.008255 21.747266-18.532138-13.474635-18.532139 13.474635 7.008255-21.747266-18.423763-13.474634C199.879771 93.021943 121.054964 165.633246 68.818175 255.584562l4.587879 14.161011h22.903267L77.813307 283.220207l7.11663 21.747266-18.532138-13.474635-18.532139 13.474635 7.008255-21.747266-0.686375-0.469625c-22.794892 45.336908-39.015029 94.466944-47.396035 146.234107l2.203627 6.68313h22.903266l-18.532138 13.474635 7.11663 21.747266-17.592888-12.788259c-1.842376 17.701263-2.890002 35.763776-2.890002 53.970789 0 13.691385 0.578 27.16602 1.625626 40.60453h519.333381V471.431595z m-436.02907 54.657165l-18.532138-13.474635-18.532139 13.474635 7.008255-21.747266-18.532138-13.474634h22.903266l7.008256-21.747266 7.11663 21.747266h22.903267l-18.532139 13.474634 7.18888 21.747266z m-7.11663-132.434347l7.11663 21.747266-18.532138-13.474635-18.640514 13.58301 7.008255-21.747266-18.532138-13.474634h22.903266l7.008255-21.747266 7.116631 21.747266H96.16482l-18.351513 13.366259z m64.519297 55.343541l7.008255 21.747266-18.532138-13.474635-18.532139 13.474635 7.008255-21.747266-18.532138-13.474635h22.903267l7.11663-21.747266 7.11663 21.747266h22.903267l-18.459889 13.474635z m0-110.578706l7.008255 21.747266-18.496013-13.43851-18.532139 13.43851 7.008255-21.747266-18.532138-13.474635h22.903267l7.11663-21.747266 7.11663 21.747266H160.828618l-18.496014 13.474635z m0-110.650956l7.008255 21.747266-18.496013-13.474635-18.532139 13.474635 7.008255-21.747266-18.532138-13.474635h22.903267L130.844846 192.546391l7.11663 21.747266h22.903267l-18.532139 13.474635z m71.563678 298.320468l-18.532139-13.474635-18.532138 13.474635 7.11663-21.747266-18.532139-13.474634h22.903267l7.008255-21.747266 7.008255 21.747266h22.903267l-18.532139 13.474634 7.188881 21.747266z m-7.116631-132.434347l7.116631 21.747266-18.532139-13.474635-18.532138 13.58301L183.948635 393.762788l-18.532139-13.474634h22.903267l7.008255-21.747266 7.008255 21.747266h22.903267l-18.459889 13.366259z m0-110.542581l7.116631 21.747266-18.532139-13.474635-18.532138 13.474635 7.11663-21.747266-18.532139-13.474635h22.903267l7.008255-21.747265 7.008255 21.747265h22.903267l-18.459889 13.474635z m0-110.578706l7.116631 21.747266-18.532139-13.474635-18.532138 13.474635 7.11663-21.747266-18.532139-13.474635h22.903267l7.008255-21.747265 7.008255 21.747265h22.903267l-18.459889 13.474635z m64.555423 276.464828l7.11663 21.747266-18.532139-13.474635-18.640513 13.474635 7.11663-21.747266-18.532139-13.474635h22.903267l7.008255-21.747266 7.11663 21.747266H289.794962l-18.459888 13.474635z m0-110.578706l7.11663 21.747266-18.532139-13.474635L241.387427 360.166514l7.11663-21.747266-18.532139-13.474635h22.903267l7.008255-21.747266 7.116631 21.747266h22.903266l-18.568263 13.474635z m0-110.650956l7.11663 21.747266-18.532139-13.474635-18.532138 13.474635 7.11663-21.747266-18.532139-13.474635h22.903267l7.008255-21.747266 7.116631 21.747266h22.903266l-18.568263 13.474635z m0-110.578706l7.11663 21.747266-18.532139-13.474635-18.532138 13.474635 7.11663-21.747266-18.640514-13.474635h22.903267L259.81119 82.00381l7.116631 21.747266h22.903266l-18.496013 13.43851z m71.527552 408.899174l-18.532138-13.474635-18.532139 13.474635 7.008255-21.747266-18.532138-13.474634h22.903266l7.116631-21.747266 7.11663 21.747266h22.903267l-18.532139 13.474634 7.080505 21.747266z m-7.008255-132.434347l7.008255 21.855641-18.532138-13.474635-18.532139 13.474635 7.008255-21.747266-18.532138-13.474634h22.903266l7.116631-21.747266 7.11663 21.747266h22.903267l-18.459889 13.366259z m0-110.542581l7.008255 21.747266-18.532138-13.474635-18.532139 13.474635 7.008255-21.747266-18.532138-13.474635h22.903266l7.116631-21.747265 7.11663 21.747265h22.903267l-18.459889 13.474635z m0-110.578706l7.008255 21.747266-18.532138-13.474635-18.532139 13.474635 7.008255-21.747266-18.532138-13.474635h22.903266l7.116631-21.747265 7.11663 21.747265h22.903267l-18.459889 13.474635z m64.447047 276.464828l7.008255 21.747266-18.423763-13.474635-18.532139 13.474635 7.11663-21.747266-18.532138-13.474635h22.903267l7.11663-21.747266 7.008255 21.747266h22.903267l-18.568264 13.474635z m0-110.578706l7.008255 21.747266-18.423763-13.474635L370.353771 360.166514l7.008255-21.747266-18.532138-13.474635h22.903267l7.11663-21.747266 7.008255 21.747266h22.903267l-18.459889 13.474635z m0-110.650956l7.008255 21.747266-18.423763-13.330135-18.532139 13.474635 7.11663-21.747266-18.532138-13.474635h22.903267l7.11663-21.747266 7.008255 21.747266h22.903267l-18.568264 13.330135z m0-110.578706l7.008255 21.747266-18.423763-13.474635-18.532139 13.474635 7.11663-21.747266-18.640513-13.474635h22.903267l7.11663-21.747266 7.008255 21.747266h22.903267l-18.459889 13.474635z m71.672053 408.899174l-18.640514-13.474635-18.532139 13.474635 7.008256-21.747266-18.423764-13.58301h22.903267l7.008255-21.747265 7.11663 21.747265h22.903267l-18.532139 13.58301 7.188881 21.747266z m-7.152756-132.434347l7.116631 21.747266-18.640514-13.330135-18.532139 13.474635 7.008256-21.747266-18.423764-13.58301h22.903267l7.008255-21.747265 7.11663 21.747265h22.903267l-18.459889 13.43851z m0-110.542581l7.116631 21.747266-18.640514-13.474635-18.532139 13.474635 7.008256-21.747266-18.423764-13.474635h22.903267l7.008255-21.747265 7.11663 21.747265h22.903267l-18.459889 13.474635z m0-110.578706l7.116631 21.747266-18.640514-13.474635-18.532139 13.474635 7.008256-21.747266-18.423764-13.474635h22.903267l7.008255-21.747265 7.11663 21.747265h22.903267l-18.459889 13.474635z m0-110.578706l7.116631 21.747266-18.640514-13.474635-18.532139 13.474635 7.008256-21.747266-18.423764-13.474634h22.903267l7.008255-21.855641 7.11663 21.747265h22.903267l-18.459889 13.58301z" fill="#223BAE" p-id="5668"></path><path d="M321.006985 36.883652c-8.959007 3.576378-17.845763 7.47788-26.588019 11.632259h22.794891l3.793128-11.632259z" fill="#223BAE" p-id="5669"></path><path d="M305.834474 83.701686l18.532139-13.474635 18.532138 13.474635-7.008255-21.747266 18.532139-13.474634h-22.903267L327.00374 34.57165c-1.950751 0.794751-3.901503 1.481126-5.852255 2.312002l-3.793128 11.632259h-22.794891l18.532138 13.474634-7.26113 21.711141z m147.498483-57.041416l-7.008255 21.855641h-22.903267l18.532139 13.474634-7.116631 21.747266 18.532139-13.474635 18.640514 13.474635-7.116631-21.747266 18.532139-13.474634h-22.903267l-7.18888-21.855641z m-186.405136 77.054681L259.81119 82.00381l-7.008255 21.747266h-22.903267l18.532139 13.474635-7.11663 21.855641 18.532138-13.58301 18.640514 13.58301-7.11663-21.855641 18.532138-13.474635h-22.975516v-0.036125z m129.002469 0l-7.008255-21.747266-7.11663 21.747266h-22.903267l18.532138 13.474635-7.008255 21.855641 18.532139-13.58301 18.532138 13.58301-7.11663-21.855641 18.640514-13.474635h-23.083892z m-200.530022 33.487899L188.283638 159.058491h-22.903267l18.532139 13.474635-7.008255 21.747266 18.532138-13.474635 18.532139 13.474635-7.11663-21.747266 18.532138-13.474635h-22.903267l-7.080505-21.855641z m128.966345 0l-7.008256 21.855641h-22.903266l18.423763 13.474635-7.008255 21.747266 18.532139-13.474635 18.532138 13.474635-7.008255-21.747266 18.532139-13.474635h-22.903267l-7.18888-21.855641z m128.966344 0l-7.008255 21.855641h-22.903267l18.532139 13.474635-7.116631 21.747266 18.532139-13.474635 18.640514 13.474635-7.116631-21.747266 18.532139-13.474635h-22.903267l-7.18888-21.855641z m-315.371481 77.090807L130.844846 192.546391l-7.11663 21.747266h-22.903267l18.532138 13.474635-7.04438 21.855641 18.532139-13.474635 18.532138 13.474635-7.008255-21.855641 18.532139-13.474635h-22.939392z m128.966345 0L259.81119 192.546391l-7.008255 21.747266h-22.903267l18.532139 13.474635-7.152755 21.855641 18.532138-13.474635 18.640514 13.474635-7.11663-21.855641 18.532138-13.474635h-22.939391z m129.002469 0l-7.008255-21.747266-7.11663 21.747266h-22.903267l18.532138 13.474635-7.008255 21.855641 18.532139-13.474635 18.532138 13.474635-7.11663-21.855641 18.640514-13.474635h-23.083892zM47.757285 304.822973l18.532139-13.474635 18.532138 13.474635-7.11663-21.747266 18.532138-13.474635h-22.903266L68.7098 255.476187c-5.165879 8.850631-10.006632 17.954138-14.59451 27.02152l0.686375 0.469625-7.04438 21.855641z m147.642983-57.041417L188.283638 269.637197h-22.903267l18.532139 13.474635-7.008255 21.747266 18.532138-13.474635 18.532139 13.474635-7.11663-21.747266 18.532138-13.474635h-22.903267l-7.080505-21.855641z m128.966345 0l-7.008256 21.855641h-22.903266l18.423763 13.474635-7.008255 21.747266 18.532139-13.474635 18.532138 13.474635-7.008255-21.747266 18.532139-13.474635h-22.903267l-7.18888-21.855641z m128.966344 0l-7.008255 21.855641h-22.903267l18.532139 13.474635-7.116631 21.747266 18.532139-13.474635 18.640514 13.474635-7.116631-21.747266 18.532139-13.474635h-22.903267l-7.18888-21.855641z m-315.371481 77.199182L130.844846 303.125097l-7.11663 21.855641h-22.903267l18.532138 13.474635-7.04438 21.711141 18.532139-13.474635 18.532138 13.474635-7.008255-21.747266 18.532139-13.474635h-22.939392v0.036125z m128.966345 0L259.81119 303.125097l-7.008255 21.855641h-22.903267l18.532139 13.474635-7.152755 21.711141 18.532138-13.474635 18.640514 13.474635-7.11663-21.747266 18.532138-13.474635h-22.939391v0.036125z m129.002469 0l-7.008255-21.855641-7.11663 21.855641h-22.903267l18.532138 13.474635-7.008255 21.747266 18.532139-13.474635 18.532138 13.474635-7.11663-21.747266 18.640514-13.474635h-23.083892z m-329.640866 33.4879l-7.008256 21.747265h-22.903266l18.532138 13.474635-7.11663 21.855641 18.532139-13.474635 18.640513 13.474635-7.11663-21.855641 18.532139-13.474635h-22.903267l-7.18888-21.747265z m129.110844 0l-7.11663 21.747265h-22.903267l18.532139 13.474635-7.008255 21.855641 18.532138-13.474635 18.532139 13.474635-7.11663-21.855641 18.532138-13.474635h-22.903267l-7.080505-21.747265z m128.966345 0l-7.008256 21.747265h-22.903266l18.423763 13.474635-7.008255 21.855641 18.532139-13.474635 18.532138 13.474635-7.008255-21.855641 18.532139-13.474635h-22.903267l-7.18888-21.747265z m128.966344 0l-7.008255 21.747265h-22.903267l18.532139 13.474635-7.116631 21.855641 18.532139-13.474635 18.640514 13.474635-7.116631-21.855641 18.532139-13.474635h-22.903267l-7.18888-21.747265zM20.41064 470.74522l-7.11663-21.747266 18.532138-13.474635H8.886757l-2.203627-6.68313c-1.625626 9.681507-2.890002 19.326889-3.901503 29.116771l17.629013 12.78826z m117.550836-35.221901l-7.11663-21.855641-7.11663 21.855641h-22.903267l18.532138 13.474635-7.008255 21.747266 18.532139-13.474635 18.532138 13.474635-7.008255-21.747266 18.532139-13.474635h-22.975517z m128.966345 0l-7.116631-21.855641-7.008255 21.855641h-22.903267l18.532139 13.474635-7.11663 21.747266 18.532138-13.474635 18.640514 13.474635-7.11663-21.747266 18.532138-13.474635h-22.975516z m129.002469 0l-7.008255-21.855641-7.11663 21.855641h-22.903267l18.532138 13.474635-7.008255 21.747266 18.532139-13.474635 18.532138 13.474635-7.11663-21.747266 18.640514-13.474635h-23.083892z m-322.488111 55.235165l-7.11663-21.747265-7.008256 21.747265h-22.903266l18.532138 13.58301-7.11663 21.747266 18.532139-13.474635 18.640513 13.474635-7.11663-21.747266 18.532139-13.58301h-22.975517z m128.966344 0l-7.008255-21.747265-7.11663 21.747265h-22.903267l18.532139 13.58301-7.008255 21.747266 18.532138-13.474635 18.532139 13.474635-7.11663-21.747266 18.532138-13.58301h-22.975517z m129.07472 0l-7.11663-21.747265-7.008256 21.747265h-22.903266l18.423763 13.58301-7.008255 21.747266 18.532139-13.474635 18.532138 13.474635-7.008255-21.747266 18.532139-13.58301h-22.975517z m128.966344 0l-7.11663-21.747265-7.008255 21.747265h-22.903267l18.532139 13.58301-7.116631 21.747266 18.532139-13.474635 18.640514 13.474635-7.116631-21.747266 18.532139-13.58301h-22.975517z" fill="#FFFFFF" p-id="5670"></path></svg>