<svg width="40" height="40" viewBox="0 0 40 40" fill="none" xmlns="http://www.w3.org/2000/svg">
<path d="M27.3594 11.6675V15.6596H21.9715V28.9665H17.888V15.6596H12.5V11.6675H27.3594Z" fill="#004AEC"/>
<path d="M18.6207 4.15988C10.5062 4.86051 4.13793 11.6848 4.13793 20.0001C4.13793 28.3154 10.5062 35.1395 18.6207 35.8401V40C8.21842 39.2898 0 30.6072 0 20.0001C0 9.39299 8.21841 0.710238 18.6207 0V4.15988ZM21.3793 0C31.7816 0.710238 40 9.39299 40 20.0001C40 30.6072 31.7816 39.2898 21.3793 40V35.8401C29.4938 35.1395 35.8621 28.3154 35.8621 20.0001C35.8621 11.6848 29.4938 4.86051 21.3793 4.15988V0Z" fill="white"/>
</svg>
