<svg width="250" height="200" viewBox="0 0 250 200" fill="none" xmlns="http://www.w3.org/2000/svg">
<path d="M109.132 24.0723C104.322 24.0967 99.6101 25.2441 95.4597 28.1494C86.573 34.3506 82.5447 46.8506 75.4158 55.6152C68.7996 63.7451 60.2546 67.5293 51.7341 71.9971C44.6296 75.7324 41.6023 84.5703 40.3816 93.2373C39.4295 100.073 39.0144 107.275 36.1091 113.306C32.7644 120.239 26.5877 124.561 22.242 130.664C15.0886 140.698 13.575 155.811 18.5554 167.529C19.6297 170.044 21.0457 172.51 23.1941 173.706C24.9519 174.707 26.9783 174.731 28.9314 174.731H29.0291L206.812 174.707C208.79 174.707 210.841 174.683 212.55 173.535C215.333 171.68 216.285 167.578 218.067 164.453C221.607 158.252 228.59 155.786 232.105 149.585C233.692 146.802 234.351 143.701 234.351 140.503V140.454C234.351 135.352 232.642 130.005 230.177 125.366C229.395 123.877 228.516 122.461 227.54 121.069C221.9 113.062 214.454 106.47 211.06 96.8994C206.495 84.1064 210.206 68.9941 206.348 55.8838C203.614 46.6553 197.022 39.1357 189.088 36.2061C182.13 33.6426 174.854 34.5459 167.53 35.4492C162.647 36.0596 157.74 36.6455 152.882 36.2305C142.994 35.3516 133.814 30.2734 124.317 26.9287C119.556 25.2441 114.478 24.0479 109.498 24.0234H109.132V24.0723Z" fill="#F7F8F9"/>
<path d="M86.4258 58.1055H178.955C180.249 58.1055 180.908 58.7646 180.908 60.0586V140.43C180.908 141.724 180.249 142.383 178.955 142.383H86.4258C85.1318 142.383 84.4727 141.724 84.4727 140.43V60.0342C84.4727 58.7402 85.1318 58.1055 86.4258 58.1055Z" fill="#F3F3F3"/>
<path d="M86.4258 58.1055H178.955C179.468 58.1055 179.956 58.3008 180.322 58.667C180.688 59.0332 180.884 59.5215 180.884 60.0342V64.6729H84.4727V60.0342C84.4727 59.5215 84.668 59.0332 85.0342 58.667C85.4248 58.3008 85.9131 58.1055 86.4258 58.1055Z" fill="#B6CEED"/>
<path d="M86.6699 61.499C86.6699 62.0361 87.1094 62.4756 87.6465 62.4756C88.1836 62.4756 88.623 62.0361 88.623 61.499C88.623 60.9619 88.1836 60.5225 87.6465 60.5225C87.1094 60.5225 86.6699 60.9619 86.6699 61.499ZM89.5752 61.499C89.5752 62.0361 90.0146 62.4756 90.5518 62.4756C91.0889 62.4756 91.5283 62.0361 91.5283 61.499C91.5283 60.9619 91.0889 60.5225 90.5518 60.5225C90.0146 60.5225 89.5752 60.9619 89.5752 61.499ZM92.5049 61.499C92.5049 62.0361 92.9443 62.4756 93.4814 62.4756C94.0186 62.4756 94.458 62.0361 94.458 61.499C94.458 60.9619 94.0186 60.5225 93.4814 60.5225C92.9443 60.5225 92.5049 60.9619 92.5049 61.499Z" fill="#F2F2F2"/>
<path d="M89.332 68.5547H174.879C175.538 68.5547 175.855 68.8721 175.855 69.5312V136.548C175.855 137.207 175.538 137.524 174.879 137.524H89.332C88.6729 137.524 88.3555 137.207 88.3555 136.548V69.5312C88.3799 68.8721 88.6973 68.5547 89.332 68.5547Z" fill="white"/>
<path d="M152.586 96.5083C152.001 97.2407 150.951 97.2407 150.292 96.6792C128.441 77.5142 109.96 95.8736 109.129 96.6792C108.836 96.9966 108.421 97.1675 107.982 97.1675C107.567 97.1675 107.152 96.9966 106.835 96.6792C106.249 96.1177 106.175 95.0435 106.835 94.4087C107.005 94.1646 128.27 73.0708 152.513 94.2378C153.148 94.8237 153.221 95.8736 152.586 96.5083ZM145.995 101.22C146.556 101.66 146.703 102.392 146.459 103.002C145.628 102.807 144.75 102.685 143.895 102.685C143.504 102.685 143.138 102.709 142.772 102.734C127.928 90.7954 116.161 103.173 115.697 103.735C115.379 104.15 114.867 104.296 114.476 104.296C114.159 104.296 113.744 104.126 113.402 103.881C112.743 103.32 112.743 102.246 113.329 101.611C113.475 101.464 128.343 85.7173 145.995 101.22ZM129.149 104.15C131.517 104.052 133.788 104.711 135.985 106.079C135.228 106.884 134.569 107.788 134.081 108.789C132.518 107.836 130.931 107.348 129.32 107.421C125.218 107.495 122.167 111.084 122.167 111.084C121.581 111.816 120.531 111.889 119.872 111.328C119.139 110.766 119.042 109.79 119.627 109.057C119.798 108.764 123.583 104.394 129.149 104.15ZM129.662 112.841C130.516 112.841 131.371 113.183 131.981 113.793C132.591 114.404 132.933 115.234 132.933 116.088C132.933 116.943 132.591 117.773 131.981 118.383C131.371 118.994 130.516 119.335 129.662 119.335C128.783 119.335 127.953 118.994 127.342 118.383C126.732 117.773 126.39 116.943 126.39 116.088C126.39 115.234 126.732 114.404 127.342 113.793C127.953 113.183 128.783 112.841 129.662 112.841ZM143.895 105.517C148.387 105.517 152.001 109.155 152.001 113.623C152.001 118.115 148.363 121.728 143.895 121.728C139.403 121.728 135.79 118.09 135.79 113.623C135.79 109.155 139.427 105.517 143.895 105.517ZM143.187 118.212C143.358 118.408 143.602 118.505 143.846 118.505C144.09 118.505 144.335 118.408 144.505 118.212C144.872 117.822 144.872 117.187 144.505 116.796C144.335 116.601 144.09 116.503 143.846 116.503C143.602 116.503 143.358 116.601 143.187 116.796C142.821 117.211 142.821 117.822 143.187 118.212ZM142.626 110.327L143.163 115.185C143.163 115.551 143.48 115.844 143.846 115.844C144.212 115.844 144.505 115.551 144.53 115.185L145.067 110.327C145.091 110.229 145.091 110.156 145.091 110.058C145.091 109.35 144.53 108.789 143.846 108.789C143.163 108.789 142.601 109.35 142.601 110.058C142.577 110.131 142.601 110.229 142.626 110.327Z" fill="#D1E1F5"/>
<path d="M167.97 118.335C168.629 118.262 169.337 118.287 169.972 118.555C171.29 119.117 171.656 120.704 171.656 121.998C171.632 123.389 171.339 124.903 172.389 126.026C172.877 126.539 173.463 126.929 173.927 127.466C174.415 128.028 174.83 128.663 175.099 129.346C175.636 130.616 175.904 132.081 175.416 133.423C174.977 134.595 173.902 135.645 174.147 136.963C174.391 138.355 175.758 139.405 176.612 140.43C177.589 141.602 178.468 143.091 178.614 144.605C178.761 146.07 178.126 147.559 177.174 148.658C175.245 150.879 172.364 151.954 169.459 151.954C168.214 151.954 166.822 151.905 165.748 151.221C165.406 151.001 165.235 150.782 165.04 150.44C164.869 150.147 164.625 149.952 164.357 149.756C163.771 149.292 163.331 148.682 163.063 147.998C162.013 145.337 162.843 142.041 164.332 139.673C164.674 139.112 164.967 138.575 164.796 137.915C164.625 137.207 164.186 136.597 163.795 135.987C163.404 135.401 162.989 134.839 162.672 134.18C162.355 133.521 162.281 132.813 162.33 132.081C162.428 130.713 163.014 129.419 163.844 128.321C164.65 127.247 165.577 126.221 165.577 124.83C165.577 123.34 164.601 122.022 165.016 120.508C165.187 119.874 165.528 119.239 166.09 118.873C166.651 118.531 167.359 118.409 167.97 118.335Z" fill="#E1ECF7"/>
<path d="M167.529 120.703C167.554 120.508 167.773 120.386 167.944 120.435C168.189 120.508 168.189 120.728 168.164 120.947C168.14 121.582 168.237 122.192 168.384 122.803C168.701 124.072 169.263 125.22 169.702 126.44C170.142 127.661 170.361 128.906 170.093 130.2C169.849 131.421 169.458 132.593 169.189 133.789C168.97 134.863 168.726 135.986 169.067 137.061C169.385 138.086 170.117 138.916 170.654 139.844C171.729 141.772 172.217 143.897 172.29 146.069C172.314 147.095 172.29 148.12 172.07 149.097C171.948 149.683 171.753 150.439 171.265 150.855C171.045 151.05 170.654 151.099 170.483 150.83C170.313 150.586 170.459 150.171 170.508 149.902C170.752 148.73 170.801 147.534 170.752 146.338C170.703 145.19 170.557 144.043 170.215 142.944C169.873 141.919 169.385 141.016 168.799 140.112C168.189 139.209 167.578 138.281 167.334 137.207C167.09 136.108 167.285 134.985 167.554 133.911C167.847 132.764 168.237 131.665 168.628 130.566C169.019 129.492 169.141 128.467 168.945 127.344C168.506 125.098 167.407 123.022 167.529 120.703Z" fill="#C5CFD6"/>
<path d="M185.865 121.192C186.719 121.436 187.549 121.851 188.16 122.486C189.454 123.853 189.039 125.904 188.331 127.417C187.574 129.029 186.402 130.664 187.061 132.52C187.354 133.374 187.867 134.156 188.16 135.01C188.453 135.938 188.599 136.89 188.575 137.842C188.55 139.6 188.062 141.48 186.768 142.798C185.621 143.946 183.765 144.605 183.35 146.289C182.911 148.047 183.985 150 184.473 151.66C185.01 153.54 185.303 155.762 184.668 157.642C184.058 159.449 182.52 160.84 180.762 161.646C177.271 163.233 173.218 162.989 169.727 161.451C168.238 160.791 166.578 159.986 165.674 158.643C165.381 158.228 165.308 157.862 165.235 157.373C165.186 156.934 164.991 156.592 164.795 156.201C164.332 155.347 164.136 154.419 164.185 153.467C164.332 149.781 167.09 146.363 170.142 144.361C170.85 143.897 171.485 143.409 171.656 142.53C171.802 141.626 171.631 140.65 171.485 139.746C171.338 138.843 171.119 137.964 171.094 137.036C171.07 136.084 171.338 135.205 171.802 134.375C172.657 132.813 174.048 131.617 175.635 130.762C177.173 129.932 178.833 129.224 179.59 127.564C180.372 125.83 179.908 123.755 181.226 122.193C181.763 121.558 182.52 120.972 183.399 120.825C184.156 120.728 185.059 120.948 185.865 121.192Z" fill="#E1E7F7"/>
<path d="M184.131 124.072C184.253 123.852 184.595 123.828 184.79 123.974C185.034 124.194 184.912 124.438 184.79 124.682C184.448 125.415 184.229 126.171 184.082 126.977C183.789 128.637 183.863 130.297 183.74 131.958C183.643 133.618 183.228 135.205 182.251 136.572C181.323 137.866 180.225 139.038 179.273 140.332C178.443 141.479 177.564 142.675 177.417 144.116C177.271 145.507 177.71 146.875 177.832 148.242C178.125 151.074 177.564 153.833 176.49 156.445C175.977 157.666 175.415 158.862 174.61 159.912C174.146 160.522 173.535 161.328 172.73 161.547C172.364 161.645 171.875 161.523 171.802 161.108C171.729 160.717 172.119 160.327 172.315 160.034C173.218 158.789 173.902 157.397 174.463 155.957C175 154.565 175.44 153.149 175.611 151.66C175.757 150.293 175.635 148.925 175.391 147.558C175.147 146.167 174.878 144.751 175.147 143.359C175.415 141.943 176.245 140.722 177.149 139.624C178.101 138.427 179.126 137.329 180.2 136.254C181.226 135.18 181.934 134.057 182.276 132.617C182.984 129.785 182.739 126.733 184.131 124.072Z" fill="#C5CFD6"/>
<path d="M159.741 131.885C161.133 131.885 162.378 132.617 163.233 133.667C164.234 134.888 164.429 136.377 164.844 137.817C165.039 138.55 165.381 139.258 165.991 139.746C166.553 140.186 167.237 140.283 167.896 140.503C169.214 140.942 170.288 141.992 170.703 143.262C171.216 144.824 170.679 146.387 170.777 147.974C170.874 149.414 172.315 150.342 173.487 151.025C174.634 151.709 175.684 152.344 176.026 153.687C176.392 155.103 176.514 156.689 176.001 158.081C175.147 160.425 172.657 161.45 170.264 161.597C168.091 161.743 165.332 161.523 163.697 159.961C162.72 159.033 162.354 157.715 162.403 156.421C162.427 155.615 162.598 154.81 162.793 154.028C162.94 153.467 163.135 152.93 163.208 152.344C163.355 150.83 161.939 150.537 160.718 150.122C159.18 149.585 158.106 148.584 157.349 147.192C156.641 145.898 156.348 144.434 156.787 143.018C157.007 142.285 157.398 141.626 157.91 141.064C158.155 140.82 158.472 140.601 158.667 140.356C158.863 140.112 158.814 139.795 158.74 139.502C158.423 138.184 157.471 137.085 157.105 135.791C156.787 134.595 156.983 133.13 158.081 132.373C158.594 132.031 159.18 131.885 159.741 131.885Z" fill="#D0DDF1"/>
<path d="M161.67 135.303C163.16 136.866 163.55 138.965 163.672 141.016C163.746 142.163 163.672 143.384 164.014 144.483C164.307 145.435 164.991 146.167 165.699 146.851C167.139 148.243 168.726 149.659 169.141 151.66C169.385 152.832 169.214 154.053 169.556 155.225C169.873 156.275 170.411 157.325 171.07 158.228C171.607 158.96 172.29 159.497 172.876 160.181C173.047 160.376 173.316 160.694 173.243 160.987C173.145 161.328 172.73 161.426 172.413 161.377C171.68 161.255 171.07 160.572 170.606 160.083C169.922 159.375 169.312 158.57 168.848 157.715C168.311 156.739 167.896 155.713 167.701 154.615C167.505 153.492 167.603 152.295 167.164 151.221C166.431 149.39 164.673 148.316 163.379 146.9C161.792 145.118 162.012 142.92 162.183 140.747C162.281 139.551 162.354 138.184 161.744 137.11C161.499 136.695 160.987 136.304 160.889 135.816C160.791 135.352 161.304 134.912 161.67 135.303Z" fill="#AFB9C5"/>
<path d="M162.793 160.938C162.793 170.02 164.282 174.78 172.095 174.78C179.932 174.78 181.396 170.02 181.396 160.938H162.793Z" fill="#BFD8FF"/>
<path d="M77.9297 131.812L86.8164 154.126L92.7734 172.998H95.1172L86.0107 131.812H77.9297Z" fill="#FECAC3"/>
<path d="M76.1484 131.812C76.0508 139.648 74.6836 150.22 74.4639 150.708C74.3174 151.025 69.2393 155.176 59.2539 163.135L60.8652 164.868C72.6572 158.032 78.834 154.175 79.3711 153.271C80.2012 151.904 82.8623 139.331 84.9863 131.836H76.1484V131.812Z" fill="#FECAC3"/>
<path d="M57.9102 163.086C57.666 163.306 57.3242 163.648 56.9336 164.112L63.501 171.924C64.3311 171.558 64.5996 171.143 64.2822 170.655C64.0137 170.264 63.7695 169.849 63.501 169.434L62.2314 165.064C62.1826 164.844 62.0361 164.673 61.8408 164.576C61.6455 164.478 61.4258 164.454 61.2061 164.527L61.0596 164.576C60.5225 164.332 60.1563 164.087 59.9609 163.819C59.8633 163.697 59.79 163.599 59.7412 163.453C59.5947 163.111 59.2773 162.867 58.9355 162.793C58.5693 162.745 58.2031 162.842 57.9102 163.086ZM91.5039 173.34C91.5039 173.658 91.5527 174.146 91.6748 174.756H101.88C102.148 173.877 102.002 173.414 101.416 173.34C100.952 173.292 100.464 173.218 100 173.145L95.8496 171.314C95.6543 171.216 95.4346 171.216 95.2148 171.314C95.0195 171.387 94.8486 171.558 94.7754 171.753L94.7266 171.9C94.1895 172.144 93.7744 172.266 93.4326 172.266C93.3105 172.266 93.1641 172.242 93.0176 172.193C92.6514 172.095 92.2852 172.168 91.9922 172.388C91.6748 172.632 91.5039 172.974 91.5039 173.34Z" fill="#E4E4E4"/>
<path d="M83.9111 171.069L95.0928 169.873L86.8164 131.836H76.8066L83.9111 171.069Z" fill="#747DA9"/>
<path d="M61.5469 160.376L68.8711 168.994C76.5859 160.62 81.1025 155.151 82.3721 152.588C83.6416 150.024 84.8135 143.115 85.8389 131.812H74.5596C73.998 141.748 73.6318 146.948 73.4365 147.412C73.2656 147.876 69.2861 152.197 61.5469 160.376Z" fill="#848DBC"/>
<path d="M80.8105 107.666C82.8613 107.666 83.5937 105.225 84.7656 103.857C85.5957 102.905 87.0117 103.174 87.4267 101.831C88.4765 98.4375 85.6689 96.0693 81.9824 96.0693C78.2959 96.0693 75.8056 98.1689 75.2685 101.294C74.7314 104.443 77.124 107.666 80.8105 107.666Z" fill="#191847"/>
<path d="M81.0312 105.469C80.2012 104.492 79.6397 103.32 79.7373 101.978C80.0059 98.1447 85.3281 98.9748 86.3779 100.928C87.4033 102.857 87.2813 107.764 85.9629 108.13C85.4258 108.277 84.3027 107.935 83.1309 107.227L83.8633 112.378H79.5664L81.0312 105.469Z" fill="#FECAC3"/>
<path d="M82.8377 103.003C82.6668 102.905 82.4959 102.881 82.325 102.881C81.7146 102.881 81.2263 103.369 81.2263 103.955C81.2263 104.199 81.2996 104.419 81.4461 104.59C81.1775 105.029 81.0066 105.469 80.9578 105.933C80.0545 105.933 76.7586 102.515 80.03 99.292C83.3259 96.0694 88.0623 100.659 86.6463 100.928C85.7918 101.099 84.156 101.88 82.8377 103.003Z" fill="#191847"/>
<path d="M93.8955 111.182L100.731 109.106C102.001 108.105 103.222 107.373 104.345 106.909C104.662 106.836 105.224 106.885 104.54 107.666C103.856 108.447 103.173 109.302 103.368 109.619C103.563 109.937 104.271 109.692 104.467 110.205C104.613 110.547 103.441 110.791 100.951 110.937L95.6289 114.087L93.8955 111.182ZM93.2852 123.34L99.0469 127.612C100.609 128.027 101.903 128.564 102.953 129.199C103.197 129.419 103.49 129.883 102.465 129.81C101.439 129.736 100.365 129.687 100.219 130.054C100.072 130.396 100.707 130.835 100.414 131.299C100.219 131.616 99.3154 130.811 97.7041 128.906L92.0156 126.514L93.2852 123.34Z" fill="#FECAC3"/>
<path d="M84.3506 111.865C87.4756 117.749 92.0166 122.266 98.584 126.978L96.0938 129.81C88.7695 127.051 84.8877 125.391 82.9834 119.824C82.4951 118.433 82.1777 113.965 81.8848 111.621L84.3506 111.865Z" fill="#B7CDE6"/>
<path d="M75.6094 131.494H89.501C86.3516 121.826 84.7402 115.161 84.667 111.572C84.667 111.377 84.3252 111.06 84.1787 111.108C83.0801 111.426 81.9326 111.304 80.6875 110.767C77.3916 116.089 76.2441 122.681 75.6094 131.494Z" fill="#F2F2F2"/>
<path d="M81.8611 110.767C85.8406 110.791 92.3103 111.523 99.7566 109.131L100.489 112.842C94.8494 116.504 89.1609 119.336 84.156 118.921C86.3288 128.296 86.2312 135.986 81.446 135.986H74.0486C72.8767 128.003 75.9529 116.968 78.8337 111.377C78.9314 111.157 79.1755 110.767 79.737 110.767H81.8611Z" fill="#D1E1F5"/>
</svg>
